<?xml version="1.0" encoding="utf-8"?>
<!-- Generator: Adobe Illustrator 21.1.0, SVG Export Plug-In . SVG Version: 6.00 Build 0)  -->
<svg version="1.1" id="Layer_1" xmlns="http://www.w3.org/2000/svg" xmlns:xlink="http://www.w3.org/1999/xlink" x="0px" y="0px"
	 viewBox="0 0 100 100" style="enable-background:new 0 0 100 100;" xml:space="preserve">
<style type="text/css">
	.st0{fill:#54C5D0;}
</style>
<g>
	<g>
		<path class="st0" d="M27,50L27,50l-0.8,0C11.8,50,0,61.3,0,75.3V100h13.9c-1-2.1-1.6-4.3-1.6-6.7v-4.4c-4-1.4-6.9-5.2-6.9-9.7
			c0-5.7,4.6-10.3,10.3-10.3c5.7,0,10.3,4.6,10.3,10.3c0,4.5-2.9,8.3-6.9,9.7v4.4c0,2.5,1.2,4.9,3.1,6.7h20c2.4-2.4,3.9-5.8,3.9-9.5
			V70.2C35.5,69.6,27,60.8,27,50z"/>
		<path class="st0" d="M71.2,50h-1.5v0c0,10-7.3,18.3-16.9,19.9v20.5c0,3.4-0.9,6.7-2.4,9.5h26V79.8h4.5V100h15.7V75.3
			C96.7,61.1,85.5,50,71.2,50z"/>
		<path class="st0" d="M63,50L63,50l-29.2,0v0c0,7.4,6.1,13.5,13.5,13.5h2.2C56.9,63.5,63,57.5,63,50z"/>
		<path class="st0" d="M48.5,41.6c11.2,0,20.2-9.1,20.2-20.2c0-0.4,0-0.4,0-0.4c0-0.4,0-0.7,0-0.7s0-2,0-4.5V4.5
			c0-2.5-2-4.5-4.5-4.5H32.7c-2.5,0-4.5,2-4.5,4.5v11.2c0,2.5,0,4.5,0,4.5s0,0.3,0,0.7c0,0,0,0,0,0.4C28.2,32.5,37.3,41.6,48.5,41.6
			z"/>
	</g>
</g>
</svg>
