<?xml version="1.0" encoding="utf-8"?>
<!-- Generator: Adobe Illustrator 20.0.0, SVG Export Plug-In . SVG Version: 6.00 Build 0)  -->
<svg version="1.1" id="Layer_1" xmlns="http://www.w3.org/2000/svg" xmlns:xlink="http://www.w3.org/1999/xlink" x="0px" y="0px"
	 viewBox="0 0 17 22" style="enable-background:new 0 0 17 22;" xml:space="preserve">
<style type="text/css">
	.st0{fill:#5FD2DD;}
</style>
<title>rate</title>
<path class="st0" d="M8.5,0C3.7,0.1-0.1,4,0,8.8c0,0.3,0,0.6,0,0.9v0.1C0.7,16.7,8.5,22,8.5,22s7.7-5.4,8.4-12.2V9.6
	c0-0.3,0-0.6,0-0.8C17,4,13.2,0.1,8.5,0z M8.5,12.5c-2,0-3.6-1.7-3.6-3.7c0-2,1.6-3.6,3.5-3.7c0,0,0,0,0,0c2,0.1,3.5,1.7,3.5,3.7
	C12,10.8,10.5,12.4,8.5,12.5z"/>
</svg>
