<?xml version="1.0" encoding="utf-8"?>
<!-- Generator: Adobe Illustrator 21.1.0, SVG Export Plug-In . SVG Version: 6.00 Build 0)  -->
<svg version="1.1" id="Layer_1" xmlns="http://www.w3.org/2000/svg" xmlns:xlink="http://www.w3.org/1999/xlink" x="0px" y="0px"
	 viewBox="0 0 52 52" style="enable-background:new 0 0 52 52;" xml:space="preserve">
<style type="text/css">
	.st0{fill:#5FD2DD;}
</style>
<g>
	<path class="st0" d="M49.5,25c-2.2-1.6-3.1-2.7-3.2-3c0-0.3,0.6-1.2,0.9-1.7c0.8-1.2,1.6-2.4,1.1-3.6c-0.5-1.1-1.9-1.4-3.3-1.7
		c-0.6-0.1-1.6-0.3-1.8-0.5c-0.1-0.3,0.1-1.3,0.2-1.9c0.3-1.4,0.5-2.8-0.3-3.6c-0.4-0.4-0.9-0.6-1.7-0.6c-0.6,0-1.3,0.1-2,0.3
		C39,8.8,38.4,8.9,38,8.9c-0.2,0-0.3,0-0.3,0c-0.2-0.2-0.4-1.2-0.5-1.8c-0.2-1.3-0.5-2.8-1.7-3.2c-0.2-0.1-0.5-0.2-0.7-0.2
		C33.9,3.7,33,4.3,32,5c-0.6,0.4-1.4,0.9-1.7,0.9c-0.3-0.1-0.9-1-1.3-1.5C28.2,3.2,27.4,2,26.1,2c-1.2,0-2.1,1.2-2.9,2.4
		c-0.3,0.5-0.9,1.4-1.2,1.5c-0.3,0-1.2-0.6-1.7-0.9c-1-0.6-1.9-1.2-2.8-1.2c-0.3,0-0.5,0-0.7,0.2c-1.1,0.5-1.4,1.9-1.7,3.2
		c-0.1,0.6-0.3,1.6-0.5,1.8c0,0-0.1,0-0.3,0c-0.4,0-1-0.1-1.6-0.2c-0.7-0.1-1.3-0.3-2-0.3C10,8.4,9.4,8.6,9,9
		c-0.9,0.9-0.6,2.3-0.3,3.6c0.1,0.6,0.3,1.6,0.2,1.8c-0.2,0.2-1.2,0.4-1.8,0.5c-1.4,0.2-2.8,0.5-3.2,1.6C3.4,17.7,4.2,19,5,20.2
		c0.3,0.5,0.9,1.4,0.9,1.7c-0.1,0.3-1,0.9-1.5,1.2C3.2,23.9,2,24.7,2,26s1.2,2.1,2.4,2.9c0.5,0.4,1.4,0.9,1.5,1.2
		c0,0.3-0.6,1.2-0.9,1.7c-0.8,1.2-1.6,2.4-1.1,3.6c0.5,1.1,1.9,1.4,3.2,1.7c0.6,0.1,1.6,0.3,1.8,0.5c0.1,0.3-0.1,1.3-0.2,1.9
		C8.4,40.7,8.2,42.1,9,43c0.4,0.4,0.9,0.6,1.7,0.6c0.6,0,1.3-0.1,2-0.3c0.6-0.1,1.2-0.2,1.6-0.2c0.2,0,0.3,0,0.3,0
		c0.2,0.2,0.4,1.2,0.5,1.8c0.2,1.3,0.5,2.8,1.6,3.2c0.2,0.1,0.5,0.2,0.8,0.2c0.9,0,1.9-0.6,2.9-1.2c0.6-0.4,1.4-0.9,1.7-0.9
		c0.3,0.1,0.9,1,1.3,1.5c0.8,1.2,1.6,2.4,2.9,2.4s2.1-1.2,2.9-2.4c0.3-0.5,1-1.4,1.2-1.5c0.3,0,1.2,0.5,1.7,0.9
		c1,0.6,1.9,1.2,2.8,1.2c0.3,0,0.5,0,0.7-0.1c1.1-0.5,1.4-1.9,1.7-3.2c0.1-0.6,0.3-1.6,0.5-1.8c0,0,0.1,0,0.3,0c0.4,0,1,0.1,1.6,0.2
		c0.7,0.1,1.3,0.3,2,0.3c0.7,0,1.3-0.2,1.7-0.6c0.9-0.9,0.6-2.3,0.3-3.6c-0.1-0.6-0.3-1.6-0.2-1.8c0.2-0.2,1.2-0.4,1.8-0.5
		c1.3-0.2,2.8-0.5,3.2-1.6c0.5-1.2-0.3-2.4-1.1-3.6c-0.3-0.5-0.9-1.4-0.9-1.7c0.1-0.3,1-1.5,3.2-3.1c0.3-0.2,0.5-0.6,0.5-1
		C50,25.6,49.9,25.2,49.5,25z M32.3,28.2l1.5,8.6L26,32.8l-7.8,4.1l1.5-8.6l-6.3-6.1l8.7-1.3l3.9-7.8l3.9,7.8l8.7,1.3L32.3,28.2z"/>
</g>
</svg>
