<?xml version="1.0" encoding="utf-8"?>
<!-- Generator: Adobe Illustrator 20.0.0, SVG Export Plug-In . SVG Version: 6.00 Build 0)  -->
<svg version="1.1" id="Layer_1" xmlns="http://www.w3.org/2000/svg" xmlns:xlink="http://www.w3.org/1999/xlink" x="0px" y="0px"
	 viewBox="0 0 20 19" style="enable-background:new 0 0 20 19;" xml:space="preserve">
<style type="text/css">
	.st0{fill:#5FD2DD;}
	.st1{fill:#54C5D0;}
</style>
<title>rate</title>
<path class="st0" d="M11.3,5.8l-0.4-0.4l0,0L10,4.6l-1.1,1l-6.6,5.9v5.8C2.3,18.3,3.1,19,4,19h3.7v-4.5c0-0.6,0.4-1,1-1h2.7
	c0.6,0,1,0.4,1,1V19H16c0.9,0,1.7-0.8,1.7-1.7v-5.8L11.3,5.8L11.3,5.8z"/>
<path class="st1" d="M19.5,8l-1.9-1.6V2.7c0-0.7-0.6-1.3-1.3-1.3C15.6,1.4,15,2,15,2.7V4l-4.1-3.7c-0.5-0.4-1.3-0.4-1.8,0L0.4,8
	c-0.6,0.5-0.7,1.3-0.2,1.9c0,0,0.1,0.1,0.1,0.1c0.5,0.6,1.3,0.6,1.9,0.1c0,0,0,0,0,0l7.8-7l7.8,6.9c0.5,0.5,1.4,0.5,1.9-0.1
	c0,0,0,0,0,0C20.2,9.5,20.2,8.6,19.5,8C19.6,8.1,19.6,8,19.5,8z"/>
</svg>
