<svg id="Layer_1" data-name="Layer 1" xmlns="http://www.w3.org/2000/svg" viewBox="0 0 20 19"><defs><style>.cls-1{fill:#54c5d0;}</style></defs><title>rate</title><path class="cls-1" d="M11.31,5.81l-0.43-.38h0L10,4.64l-1.07,1-6.6,5.87v5.84A1.68,1.68,0,0,0,4,19H7.66V14.49a1,1,0,0,1,1-1h2.67a1,1,0,0,1,1,1V19H16a1.68,1.68,0,0,0,1.67-1.68V11.47L11.33,5.83Z"/><path class="cls-1" d="M19.55,8L17.67,6.37V2.7A1.33,1.33,0,1,0,15,2.7V4L10.88,0.34a1.33,1.33,0,0,0-1.76,0L0.45,8A1.36,1.36,0,0,0,.33,10a1.32,1.32,0,0,0,1.88.12L10,3.14l7.79,6.93A1.33,1.33,0,0,0,19.67,10,1.36,1.36,0,0,0,19.55,8Z"/></svg>